{
	"asset":{
		"generator":"Khronos glTF Blender I/O v3.6.27",
		"version":"2.0"
	},
	"extensionsUsed":[
		"KHR_materials_specular",
		"KHR_materials_ior"
	],
	"scene":0,
	"scenes":[
		{
			"name":"Scene",
			"nodes":[
				0,
				1
			]
		}
	],
	"nodes":[
		{
			"mesh":0,
			"name":"Head"
		},
		{
			"mesh":1,
			"name":"Hair"
		}
	],
	"materials":[
		{
			"doubleSided":true,
			"extensions":{
				"KHR_materials_specular":{
					"specularColorFactor":[
						0.08623117441518398,
						0.08623117441518398,
						0.08623117441518398
					]
				},
				"KHR_materials_ior":{
					"ior":1.4500000476837158
				}
			},
			"name":"Head",
			"pbrMetallicRoughness":{
				"baseColorTexture":{
					"index":0
				},
				"metallicFactor":0,
				"roughnessFactor":0.47727271914482117
			}
		},
		{
			"alphaMode":"BLEND",
			"doubleSided":true,
			"name":"Hair",
			"pbrMetallicRoughness":{}
		}
	],
	"meshes":[
		{
			"name":"Head",
			"primitives":[
				{
					"attributes":{
						"POSITION":0,
						"NORMAL":1,
						"TEXCOORD_0":2
					},
					"indices":3,
					"material":0
				}
			]
		},
		{
			"name":"Hair",
			"primitives":[
				{
					"attributes":{
						"POSITION":4,
						"NORMAL":5,
						"TEXCOORD_0":6
					},
					"indices":7,
					"material":1
				}
			]
		}
	],
	"textures":[
		{
			"sampler":0,
			"source":0
		}
	],
	"images":[
		{
			"bufferView":4,
			"mimeType":"image/png",
			"name":"Head BaseColor"
		}
	],
	"accessors":[
		{
			"bufferView":0,
			"componentType":5126,
			"count":8068,
			"max":[
				0.1577719748020172,
				0.5800396203994751,
				0.1709682047367096
			],
			"min":[
				-0.15784785151481628,
				-0.00018322467803955078,
				-0.13053835928440094
			],
			"type":"VEC3"
		},
		{
			"bufferView":1,
			"componentType":5126,
			"count":8068,
			"type":"VEC3"
		},
		{
			"bufferView":2,
			"componentType":5126,
			"count":8068,
			"type":"VEC2"
		},
		{
			"bufferView":3,
			"componentType":5123,
			"count":45900,
			"type":"SCALAR"
		},
		{
			"bufferView":5,
			"componentType":5126,
			"count":3702,
			"max":[
				0.09668528288602829,
				0.6036712527275085,
				0.09861905127763748
			],
			"min":[
				-0.09948255121707916,
				0.01264897920191288,
				-0.2518690824508667
			],
			"type":"VEC3"
		},
		{
			"bufferView":6,
			"componentType":5126,
			"count":3702,
			"type":"VEC3"
		},
		{
			"bufferView":7,
			"componentType":5126,
			"count":3702,
			"type":"VEC2"
		},
		{
			"bufferView":8,
			"componentType":5123,
			"count":12903,
			"type":"SCALAR"
		}
	],
	"bufferViews":[
		{
			"buffer":0,
			"byteLength":96816,
			"byteOffset":0,
			"target":34962
		},
		{
			"buffer":0,
			"byteLength":96816,
			"byteOffset":96816,
			"target":34962
		},
		{
			"buffer":0,
			"byteLength":64544,
			"byteOffset":193632,
			"target":34962
		},
		{
			"buffer":0,
			"byteLength":91800,
			"byteOffset":258176,
			"target":34963
		},
		{
			"buffer":0,
			"byteLength":223749,
			"byteOffset":349976
		},
		{
			"buffer":0,
			"byteLength":44424,
			"byteOffset":573728,
			"target":34962
		},
		{
			"buffer":0,
			"byteLength":44424,
			"byteOffset":618152,
			"target":34962
		},
		{
			"buffer":0,
			"byteLength":29616,
			"byteOffset":662576,
			"target":34962
		},
		{
			"buffer":0,
			"byteLength":25806,
			"byteOffset":692192,
			"target":34963
		}
	],
	"samplers":[
		{
			"magFilter":9729,
			"minFilter":9987
		}
	],
	"buffers":[
		{
			"byteLength":718000,
			"uri":"data:application/octet-stream;base64,"
		}
	]
}
